G04*
G04 #@! TF.GenerationSoftware,Altium Limited,Altium Designer,24.4.1 (13)*
G04*
G04 Layer_Color=8421504*
%FSLAX25Y25*%
%MOIN*%
G70*
G04*
G04 #@! TF.SameCoordinates,8AE4C5FD-FAF6-43D2-9A58-D59D8264A591*
G04*
G04*
G04 #@! TF.FilePolarity,Positive*
G04*
G01*
G75*
%ADD10R,0.16142X0.03543*%
%ADD11R,0.16142X0.04921*%
%ADD12R,0.03543X0.16142*%
%ADD13R,0.04921X0.16142*%
%ADD14R,0.02362X0.02362*%
%ADD15R,0.02362X0.02362*%
%ADD16P,0.03341X4X345.0*%
%ADD17P,0.03341X4X105.0*%
D10*
X9055Y39370D02*
D03*
X148721D02*
D03*
D11*
X9055Y50295D02*
D03*
Y28445D02*
D03*
X148721D02*
D03*
Y50295D02*
D03*
D12*
X39370Y9055D02*
D03*
Y69685D02*
D03*
X112795Y70079D02*
D03*
X112795Y9055D02*
D03*
D13*
X28445D02*
D03*
X50295D02*
D03*
Y69685D02*
D03*
X28445D02*
D03*
X123721Y70079D02*
D03*
X101870D02*
D03*
X101870Y9055D02*
D03*
X123720D02*
D03*
D14*
X112795Y37402D02*
D03*
Y41339D02*
D03*
X39370Y32283D02*
D03*
Y36220D02*
D03*
Y46457D02*
D03*
Y42520D02*
D03*
D15*
X36220Y39370D02*
D03*
X32283D02*
D03*
D16*
X117193Y34843D02*
D03*
X120602Y36811D02*
D03*
D17*
Y41929D02*
D03*
X117193Y43898D02*
D03*
M02*
