G04*
G04 #@! TF.GenerationSoftware,Altium Limited,Altium Designer,24.4.1 (13)*
G04*
G04 Layer_Physical_Order=1*
G04 Layer_Color=255*
%FSLAX25Y25*%
%MOIN*%
G70*
G04*
G04 #@! TF.SameCoordinates,8AE4C5FD-FAF6-43D2-9A58-D59D8264A591*
G04*
G04*
G04 #@! TF.FilePolarity,Positive*
G04*
G01*
G75*
%ADD10R,0.16142X0.03543*%
%ADD11R,0.16142X0.04921*%
%ADD12R,0.03543X0.16142*%
%ADD13R,0.04921X0.16142*%
%ADD14R,0.02362X0.02362*%
%ADD15R,0.02362X0.02362*%
%ADD16P,0.03341X4X345.0*%
%ADD17P,0.03341X4X105.0*%
%ADD31C,0.02362*%
%ADD32C,0.02756*%
G36*
X36220Y37463D02*
X37463D01*
Y36220D01*
X37500Y36036D01*
X37500Y34350D01*
X37500Y33850D01*
Y31680D01*
X37463Y31496D01*
Y18766D01*
X37437Y18339D01*
X37403Y18079D01*
X37362Y17875D01*
X37353Y17843D01*
X36319D01*
Y803D01*
X803D01*
Y36319D01*
X17834D01*
Y37350D01*
X17875Y37362D01*
X18062Y37400D01*
X18844Y37463D01*
X31496D01*
X31680Y37500D01*
X33850D01*
X34154Y37500D01*
X34654Y37500D01*
X36036D01*
X36220Y37463D01*
D02*
G37*
G36*
X19476Y38189D02*
X19027Y38183D01*
X17964Y38096D01*
X17705Y38044D01*
X17492Y37981D01*
X17327Y37905D01*
X17209Y37819D01*
X17138Y37720D01*
X17114Y37610D01*
Y41130D01*
X17138Y41020D01*
X17209Y40921D01*
X17327Y40835D01*
X17492Y40760D01*
X17705Y40696D01*
X17964Y40644D01*
X18271Y40603D01*
X19027Y40557D01*
X19476Y40551D01*
Y38189D01*
D02*
G37*
G36*
X36319Y60926D02*
X36909D01*
Y60925D01*
X37344D01*
X37362Y60865D01*
X37400Y60678D01*
X37463Y59897D01*
Y47244D01*
X37500Y47060D01*
Y44890D01*
X37500Y44587D01*
X37500Y44087D01*
Y42704D01*
X37463Y42520D01*
Y41277D01*
X36220D01*
X36036Y41240D01*
X34350Y41240D01*
X33850Y41240D01*
X31680D01*
X31496Y41277D01*
X18766D01*
X18339Y41303D01*
X18079Y41337D01*
X17875Y41378D01*
X17834Y41390D01*
Y42421D01*
X803D01*
Y77937D01*
X36319D01*
Y60926D01*
D02*
G37*
G36*
X41020Y61603D02*
X40921Y61532D01*
X40835Y61414D01*
X40759Y61248D01*
X40696Y61036D01*
X40644Y60776D01*
X40603Y60469D01*
X40557Y59713D01*
X40551Y59264D01*
X38189D01*
X38183Y59713D01*
X38096Y60776D01*
X38044Y61036D01*
X37981Y61248D01*
X37905Y61414D01*
X37819Y61532D01*
X37720Y61603D01*
X37610Y61626D01*
X41130D01*
X41020Y61603D01*
D02*
G37*
G36*
X40557Y19027D02*
X40644Y17964D01*
X40696Y17705D01*
X40759Y17492D01*
X40835Y17327D01*
X40921Y17209D01*
X41020Y17138D01*
X41130Y17114D01*
X37610D01*
X37720Y17138D01*
X37819Y17209D01*
X37905Y17327D01*
X37981Y17492D01*
X38044Y17705D01*
X38096Y17964D01*
X38137Y18271D01*
X38183Y19027D01*
X38189Y19476D01*
X40551D01*
X40557Y19027D01*
D02*
G37*
G36*
X109744Y61284D02*
X110780D01*
X110787Y61259D01*
X110825Y61071D01*
X110889Y60290D01*
Y46458D01*
X110890Y46452D01*
X110889Y46447D01*
X110919Y41359D01*
X110925Y41327D01*
Y39469D01*
X110925D01*
Y39272D01*
X110925D01*
Y37413D01*
X110919Y37381D01*
X110889Y32293D01*
X110890Y32288D01*
X110889Y32282D01*
Y18766D01*
X110862Y18339D01*
X110828Y18079D01*
X110795Y17913D01*
X109744D01*
Y803D01*
X42421D01*
Y17843D01*
X41388D01*
X41378Y17875D01*
X41341Y18062D01*
X41277Y18844D01*
Y31496D01*
X41240Y31680D01*
Y33850D01*
X41240Y34154D01*
X41240Y34654D01*
Y36036D01*
X41277Y36220D01*
Y39370D01*
Y42520D01*
X41240Y42704D01*
X41240Y44390D01*
X41240Y44890D01*
Y47060D01*
X41277Y47244D01*
Y59975D01*
X41303Y60401D01*
X41337Y60661D01*
X41378Y60865D01*
X41396Y60925D01*
X41831D01*
Y60926D01*
X42421D01*
Y77937D01*
X109744D01*
Y61284D01*
D02*
G37*
G36*
X114445Y61996D02*
X114347Y61925D01*
X114260Y61807D01*
X114185Y61642D01*
X114121Y61429D01*
X114069Y61169D01*
X114028Y60862D01*
X113982Y60106D01*
X113976Y59658D01*
X111614D01*
X111608Y60106D01*
X111522Y61169D01*
X111470Y61429D01*
X111406Y61642D01*
X111331Y61807D01*
X111244Y61925D01*
X111146Y61996D01*
X111036Y62020D01*
X114555D01*
X114445Y61996D01*
D02*
G37*
G36*
X156677Y42421D02*
X139979D01*
Y41831D01*
X139961D01*
Y41396D01*
X139901Y41378D01*
X139713Y41341D01*
X138932Y41277D01*
X125505D01*
X123128Y42630D01*
X119918Y44484D01*
Y44484D01*
X119747Y44582D01*
X119747Y44582D01*
X118243Y45451D01*
X118149Y45534D01*
X114702Y47551D01*
Y60368D01*
X114728Y60795D01*
X114762Y61054D01*
X114803Y61259D01*
X114811Y61284D01*
X115847D01*
Y77937D01*
X156677D01*
Y42421D01*
D02*
G37*
G36*
X140662Y37610D02*
X140638Y37720D01*
X140567Y37819D01*
X140449Y37905D01*
X140284Y37981D01*
X140071Y38044D01*
X139811Y38096D01*
X139504Y38137D01*
X138748Y38183D01*
X138299Y38189D01*
Y40551D01*
X138748Y40557D01*
X139811Y40644D01*
X140071Y40696D01*
X140284Y40760D01*
X140449Y40835D01*
X140567Y40921D01*
X140638Y41020D01*
X140662Y41130D01*
Y37610D01*
D02*
G37*
G36*
X116223Y42243D02*
X116463Y42159D01*
X117877Y41343D01*
Y41343D01*
X118048Y41245D01*
X118048Y41245D01*
X119299Y40522D01*
X119635Y40231D01*
X120708Y39620D01*
Y39120D01*
X119635Y38509D01*
X119299Y38218D01*
X118310Y37647D01*
X118048Y37495D01*
X117877Y37397D01*
X117444Y37147D01*
X116463Y36581D01*
X116223Y36498D01*
X115158Y35874D01*
X114725Y36124D01*
X114732Y37358D01*
X114665Y37705D01*
Y39272D01*
X114665D01*
Y39469D01*
X114665D01*
Y41036D01*
X114732Y41382D01*
X114725Y42616D01*
X115158Y42866D01*
X116223Y42243D01*
D02*
G37*
G36*
X139437Y37437D02*
X139696Y37403D01*
X139901Y37362D01*
X139961Y37344D01*
Y36909D01*
X139979D01*
Y36319D01*
X156677D01*
Y803D01*
X115846D01*
Y17913D01*
X114796D01*
X114766Y18062D01*
X114702Y18844D01*
Y31189D01*
X118149Y33206D01*
X118243Y33289D01*
X119747Y34158D01*
X119747Y34158D01*
X120180Y34408D01*
X123128Y36110D01*
X125505Y37463D01*
X139010D01*
X139437Y37437D01*
D02*
G37*
G36*
X113982Y19027D02*
X114069Y17964D01*
X114121Y17705D01*
X114185Y17492D01*
X114260Y17327D01*
X114347Y17209D01*
X114445Y17138D01*
X114555Y17114D01*
X111036D01*
X111145Y17138D01*
X111244Y17209D01*
X111331Y17327D01*
X111406Y17492D01*
X111469Y17705D01*
X111522Y17964D01*
X111562Y18271D01*
X111608Y19027D01*
X111614Y19476D01*
X113976D01*
X113982Y19027D01*
D02*
G37*
D10*
X9055Y39370D02*
D03*
X148721D02*
D03*
D11*
X9055Y50295D02*
D03*
Y28445D02*
D03*
X148721D02*
D03*
Y50295D02*
D03*
D12*
X39370Y9055D02*
D03*
Y69685D02*
D03*
X112795Y70079D02*
D03*
X112795Y9055D02*
D03*
D13*
X28445D02*
D03*
X50295D02*
D03*
Y69685D02*
D03*
X28445D02*
D03*
X123721Y70079D02*
D03*
X101870D02*
D03*
X101870Y9055D02*
D03*
X123720D02*
D03*
D14*
X112795Y37402D02*
D03*
Y41339D02*
D03*
X39370Y32283D02*
D03*
Y36220D02*
D03*
Y46457D02*
D03*
Y42520D02*
D03*
D15*
X36220Y39370D02*
D03*
X32283D02*
D03*
D16*
X117193Y34843D02*
D03*
X120602Y36811D02*
D03*
D17*
Y41929D02*
D03*
X117193Y43898D02*
D03*
D31*
X9055Y39370D02*
X31496D01*
X7874D02*
X9055D01*
X39370Y9055D02*
Y31496D01*
Y7874D02*
Y9055D01*
Y69685D02*
Y70866D01*
Y47244D02*
Y69685D01*
X112795Y46458D02*
Y70866D01*
X148721Y39370D02*
X149606D01*
X125000D02*
X148721D01*
X120579Y41888D02*
X125000Y39370D01*
X120579Y36852D02*
X125000Y39370D01*
X112795Y9055D02*
Y32282D01*
Y7874D02*
Y9055D01*
X39370Y39370D02*
Y42520D01*
X36220Y39370D02*
X39370D01*
X112795Y70866D02*
X112795Y70866D01*
X112795Y32282D02*
X112795Y32282D01*
X112795Y46458D02*
X117186Y43888D01*
X112795Y46458D02*
X112825Y41370D01*
X112795Y32282D02*
X112825Y37370D01*
X112795Y32282D02*
X117186Y34852D01*
X39370Y36220D02*
Y39370D01*
D32*
X116929D02*
D03*
X101870Y70079D02*
D03*
X101969Y74213D02*
D03*
Y66339D02*
D03*
X123721Y70079D02*
D03*
X123819Y74213D02*
D03*
Y66339D02*
D03*
X148721Y50295D02*
D03*
X152854Y50197D02*
D03*
X144980D02*
D03*
X148721Y28445D02*
D03*
X152854Y28346D02*
D03*
X144980D02*
D03*
X123720Y9055D02*
D03*
X123622Y4921D02*
D03*
Y12795D02*
D03*
X101870Y9055D02*
D03*
X101772Y4921D02*
D03*
Y12795D02*
D03*
X50295Y9055D02*
D03*
X50197Y4921D02*
D03*
Y12795D02*
D03*
X28445Y9055D02*
D03*
X28346Y4921D02*
D03*
Y12795D02*
D03*
X50295Y69685D02*
D03*
X50197Y65551D02*
D03*
Y73425D02*
D03*
X28445Y69685D02*
D03*
X28346Y65551D02*
D03*
Y73425D02*
D03*
X9055Y50295D02*
D03*
X4921Y50394D02*
D03*
X12795D02*
D03*
Y28543D02*
D03*
X4921D02*
D03*
X9055Y28445D02*
D03*
X119165Y29528D02*
D03*
Y49213D02*
D03*
X122575Y47244D02*
D03*
Y31496D02*
D03*
X125984Y45276D02*
D03*
Y33465D02*
D03*
X129921D02*
D03*
Y45276D02*
D03*
X133858Y33465D02*
D03*
Y45276D02*
D03*
X153543D02*
D03*
X149606D02*
D03*
X145669D02*
D03*
X141732D02*
D03*
X137795D02*
D03*
Y33465D02*
D03*
X141732D02*
D03*
X145669D02*
D03*
X149606D02*
D03*
X153543D02*
D03*
X118701Y5906D02*
D03*
Y9843D02*
D03*
Y13780D02*
D03*
Y17717D02*
D03*
Y21654D02*
D03*
Y25591D02*
D03*
X118701Y53150D02*
D03*
Y57087D02*
D03*
Y61024D02*
D03*
Y64961D02*
D03*
Y68898D02*
D03*
Y72835D02*
D03*
X106890Y74803D02*
D03*
X106890Y70866D02*
D03*
X106890Y66929D02*
D03*
Y62992D02*
D03*
Y59055D02*
D03*
Y55118D02*
D03*
X106890Y51181D02*
D03*
X106890Y47244D02*
D03*
Y43307D02*
D03*
Y39370D02*
D03*
Y35433D02*
D03*
Y31496D02*
D03*
Y27559D02*
D03*
X106890Y23622D02*
D03*
Y19685D02*
D03*
X106890Y15748D02*
D03*
X106890Y11811D02*
D03*
X106890Y7874D02*
D03*
X106890Y3937D02*
D03*
X45276Y72835D02*
D03*
Y68898D02*
D03*
Y64961D02*
D03*
Y61024D02*
D03*
Y57087D02*
D03*
Y53150D02*
D03*
Y49213D02*
D03*
Y45276D02*
D03*
Y41339D02*
D03*
Y37402D02*
D03*
Y33465D02*
D03*
Y29528D02*
D03*
Y25591D02*
D03*
Y21654D02*
D03*
Y17717D02*
D03*
Y13780D02*
D03*
Y9843D02*
D03*
Y5906D02*
D03*
X33465D02*
D03*
Y9843D02*
D03*
Y13780D02*
D03*
Y17717D02*
D03*
Y21654D02*
D03*
Y25591D02*
D03*
Y29528D02*
D03*
Y33465D02*
D03*
X29528D02*
D03*
X25591D02*
D03*
X21654D02*
D03*
X17717D02*
D03*
X13780D02*
D03*
X9843D02*
D03*
X5906D02*
D03*
X33465Y72835D02*
D03*
Y68898D02*
D03*
Y64961D02*
D03*
Y61024D02*
D03*
Y57087D02*
D03*
Y53150D02*
D03*
X5906Y45276D02*
D03*
X9843D02*
D03*
X13780D02*
D03*
X17717D02*
D03*
X21654D02*
D03*
X25591D02*
D03*
X29528D02*
D03*
X33465Y49213D02*
D03*
Y45276D02*
D03*
M02*
