G04*
G04 #@! TF.GenerationSoftware,Altium Limited,Altium Designer,24.4.1 (13)*
G04*
G04 Layer_Color=16711935*
%FSLAX25Y25*%
%MOIN*%
G70*
G04*
G04 #@! TF.SameCoordinates,8AE4C5FD-FAF6-43D2-9A58-D59D8264A591*
G04*
G04*
G04 #@! TF.FilePolarity,Negative*
G04*
G01*
G75*
%ADD23R,0.16942X0.05721*%
%ADD25R,0.05721X0.16942*%
%ADD30C,0.03556*%
D23*
X9055Y50295D02*
D03*
Y28445D02*
D03*
X148721D02*
D03*
Y50295D02*
D03*
D25*
X28445Y9055D02*
D03*
X50295D02*
D03*
Y69685D02*
D03*
X28445D02*
D03*
X123721Y70079D02*
D03*
X101870D02*
D03*
X101870Y9055D02*
D03*
X123720D02*
D03*
D30*
X116929Y39370D02*
D03*
X101870Y70079D02*
D03*
X101969Y74213D02*
D03*
Y66339D02*
D03*
X123721Y70079D02*
D03*
X123819Y74213D02*
D03*
Y66339D02*
D03*
X148721Y50295D02*
D03*
X152854Y50197D02*
D03*
X144980D02*
D03*
X148721Y28445D02*
D03*
X152854Y28346D02*
D03*
X144980D02*
D03*
X123720Y9055D02*
D03*
X123622Y4921D02*
D03*
Y12795D02*
D03*
X101870Y9055D02*
D03*
X101772Y4921D02*
D03*
Y12795D02*
D03*
X50295Y9055D02*
D03*
X50197Y4921D02*
D03*
Y12795D02*
D03*
X28445Y9055D02*
D03*
X28346Y4921D02*
D03*
Y12795D02*
D03*
X50295Y69685D02*
D03*
X50197Y65551D02*
D03*
Y73425D02*
D03*
X28445Y69685D02*
D03*
X28346Y65551D02*
D03*
Y73425D02*
D03*
X9055Y50295D02*
D03*
X4921Y50394D02*
D03*
X12795D02*
D03*
Y28543D02*
D03*
X4921D02*
D03*
X9055Y28445D02*
D03*
X119165Y29528D02*
D03*
Y49213D02*
D03*
X122575Y47244D02*
D03*
Y31496D02*
D03*
X125984Y45276D02*
D03*
Y33465D02*
D03*
X129921D02*
D03*
Y45276D02*
D03*
X133858Y33465D02*
D03*
Y45276D02*
D03*
X153543D02*
D03*
X149606D02*
D03*
X145669D02*
D03*
X141732D02*
D03*
X137795D02*
D03*
Y33465D02*
D03*
X141732D02*
D03*
X145669D02*
D03*
X149606D02*
D03*
X153543D02*
D03*
X118701Y5906D02*
D03*
Y9843D02*
D03*
Y13780D02*
D03*
Y17717D02*
D03*
Y21654D02*
D03*
Y25591D02*
D03*
X118701Y53150D02*
D03*
Y57087D02*
D03*
Y61024D02*
D03*
Y64961D02*
D03*
Y68898D02*
D03*
Y72835D02*
D03*
X106890Y74803D02*
D03*
X106890Y70866D02*
D03*
X106890Y66929D02*
D03*
Y62992D02*
D03*
Y59055D02*
D03*
Y55118D02*
D03*
X106890Y51181D02*
D03*
X106890Y47244D02*
D03*
Y43307D02*
D03*
Y39370D02*
D03*
Y35433D02*
D03*
Y31496D02*
D03*
Y27559D02*
D03*
X106890Y23622D02*
D03*
Y19685D02*
D03*
X106890Y15748D02*
D03*
X106890Y11811D02*
D03*
X106890Y7874D02*
D03*
X106890Y3937D02*
D03*
X45276Y72835D02*
D03*
Y68898D02*
D03*
Y64961D02*
D03*
Y61024D02*
D03*
Y57087D02*
D03*
Y53150D02*
D03*
Y49213D02*
D03*
Y45276D02*
D03*
Y41339D02*
D03*
Y37402D02*
D03*
Y33465D02*
D03*
Y29528D02*
D03*
Y25591D02*
D03*
Y21654D02*
D03*
Y17717D02*
D03*
Y13780D02*
D03*
Y9843D02*
D03*
Y5906D02*
D03*
X33465D02*
D03*
Y9843D02*
D03*
Y13780D02*
D03*
Y17717D02*
D03*
Y21654D02*
D03*
Y25591D02*
D03*
Y29528D02*
D03*
Y33465D02*
D03*
X29528D02*
D03*
X25591D02*
D03*
X21654D02*
D03*
X17717D02*
D03*
X13780D02*
D03*
X9843D02*
D03*
X5906D02*
D03*
X33465Y72835D02*
D03*
Y68898D02*
D03*
Y64961D02*
D03*
Y61024D02*
D03*
Y57087D02*
D03*
Y53150D02*
D03*
X5906Y45276D02*
D03*
X9843D02*
D03*
X13780D02*
D03*
X17717D02*
D03*
X21654D02*
D03*
X25591D02*
D03*
X29528D02*
D03*
X33465Y49213D02*
D03*
Y45276D02*
D03*
M02*
