G04*
G04 #@! TF.GenerationSoftware,Altium Limited,Altium Designer,24.4.1 (13)*
G04*
G04 Layer_Color=65535*
%FSLAX25Y25*%
%MOIN*%
G70*
G04*
G04 #@! TF.SameCoordinates,8AE4C5FD-FAF6-43D2-9A58-D59D8264A591*
G04*
G04*
G04 #@! TF.FilePolarity,Positive*
G04*
G01*
G75*
G36*
X98468Y48080D02*
Y39242D01*
Y31956D01*
Y18960D01*
X53107D01*
Y31956D01*
Y39242D01*
Y48080D01*
Y59780D01*
X98468D01*
Y48080D01*
D02*
G37*
%LPC*%
G36*
X85504Y54168D02*
X83843D01*
Y53031D01*
X85504D01*
Y54168D01*
D02*
G37*
G36*
X73886D02*
X72224D01*
Y53031D01*
X73886D01*
Y54168D01*
D02*
G37*
G36*
X77143Y52616D02*
X76946D01*
X76684Y52605D01*
X76443Y52594D01*
X76247Y52561D01*
X76082Y52540D01*
X75940Y52507D01*
X75842Y52474D01*
X75787Y52463D01*
X75766Y52452D01*
X75612Y52387D01*
X75470Y52321D01*
X75361Y52245D01*
X75263Y52168D01*
X75175Y52102D01*
X75121Y52048D01*
X75088Y52004D01*
X75077Y51993D01*
X75000Y51873D01*
X74935Y51753D01*
X74891Y51622D01*
X74869Y51512D01*
X74847Y51403D01*
X74836Y51326D01*
Y51272D01*
Y51250D01*
X74847Y51108D01*
X74869Y50977D01*
X74913Y50867D01*
X74957Y50758D01*
X74989Y50682D01*
X75033Y50616D01*
X75055Y50572D01*
X75066Y50561D01*
X75153Y50452D01*
X75252Y50365D01*
X75339Y50288D01*
X75427Y50233D01*
X75503Y50179D01*
X75569Y50146D01*
X75612Y50135D01*
X75624Y50124D01*
X75689Y50102D01*
X75776Y50069D01*
X75951Y50026D01*
X76159Y49982D01*
X76356Y49938D01*
X76542Y49895D01*
X76629Y49884D01*
X76695Y49862D01*
X76749Y49851D01*
X76804D01*
X76826Y49840D01*
X76837D01*
X77033Y49807D01*
X77197Y49774D01*
X77318Y49742D01*
X77405Y49720D01*
X77471Y49698D01*
X77514Y49676D01*
X77536Y49665D01*
X77547D01*
X77613Y49621D01*
X77656Y49578D01*
X77689Y49534D01*
X77711Y49490D01*
X77733Y49425D01*
Y49403D01*
Y49392D01*
X77722Y49337D01*
X77711Y49283D01*
X77656Y49195D01*
X77602Y49151D01*
X77591Y49130D01*
X77580D01*
X77503Y49086D01*
X77427Y49053D01*
X77263Y49009D01*
X77186Y48998D01*
X77121Y48987D01*
X77066D01*
X76957Y48998D01*
X76859Y49009D01*
X76771Y49031D01*
X76705Y49053D01*
X76651Y49075D01*
X76607Y49086D01*
X76585Y49108D01*
X76574D01*
X76509Y49162D01*
X76454Y49228D01*
X76378Y49381D01*
X76345Y49446D01*
X76323Y49490D01*
X76301Y49534D01*
Y49545D01*
X74651Y49392D01*
X74716Y49173D01*
X74815Y48976D01*
X74913Y48802D01*
X75022Y48670D01*
X75132Y48561D01*
X75219Y48485D01*
X75274Y48430D01*
X75296Y48419D01*
X75394Y48364D01*
X75514Y48310D01*
X75776Y48222D01*
X76050Y48168D01*
X76334Y48124D01*
X76465Y48113D01*
X76585Y48102D01*
X76695Y48091D01*
X76793D01*
X76880Y48080D01*
X76990D01*
X77285Y48091D01*
X77547Y48113D01*
X77777Y48146D01*
X77962Y48189D01*
X78115Y48222D01*
X78225Y48255D01*
X78290Y48277D01*
X78312Y48288D01*
X78487Y48375D01*
X78629Y48463D01*
X78760Y48561D01*
X78859Y48649D01*
X78935Y48725D01*
X78990Y48791D01*
X79023Y48834D01*
X79034Y48845D01*
X79110Y48976D01*
X79165Y49108D01*
X79208Y49239D01*
X79230Y49348D01*
X79252Y49446D01*
X79263Y49512D01*
Y49578D01*
X79252Y49709D01*
X79230Y49840D01*
X79198Y49960D01*
X79154Y50059D01*
X79110Y50135D01*
X79077Y50201D01*
X79056Y50244D01*
X79045Y50255D01*
X78957Y50365D01*
X78859Y50463D01*
X78749Y50550D01*
X78651Y50616D01*
X78564Y50671D01*
X78487Y50703D01*
X78443Y50725D01*
X78421Y50736D01*
X78258Y50802D01*
X78061Y50856D01*
X77853Y50900D01*
X77656Y50933D01*
X77471Y50966D01*
X77394Y50977D01*
X77318Y50988D01*
X77263D01*
X77219Y50999D01*
X77186D01*
X77001Y51020D01*
X76848Y51053D01*
X76716Y51075D01*
X76629Y51097D01*
X76552Y51119D01*
X76509Y51141D01*
X76487Y51152D01*
X76476D01*
X76421Y51184D01*
X76389Y51217D01*
X76345Y51305D01*
X76323Y51370D01*
Y51381D01*
Y51392D01*
X76334Y51447D01*
X76345Y51490D01*
X76389Y51567D01*
X76421Y51611D01*
X76443Y51632D01*
X76498Y51665D01*
X76563Y51698D01*
X76705Y51731D01*
X76760Y51742D01*
X76957D01*
X77055Y51720D01*
X77132Y51698D01*
X77208Y51676D01*
X77263Y51654D01*
X77307Y51632D01*
X77328Y51622D01*
X77340Y51611D01*
X77427Y51523D01*
X77492Y51425D01*
X77514Y51381D01*
X77536Y51337D01*
X77547Y51315D01*
Y51305D01*
X79121Y51458D01*
X79056Y51611D01*
X78990Y51742D01*
X78913Y51851D01*
X78848Y51949D01*
X78793Y52026D01*
X78749Y52081D01*
X78717Y52113D01*
X78706Y52124D01*
X78607Y52212D01*
X78498Y52288D01*
X78400Y52354D01*
X78301Y52408D01*
X78214Y52441D01*
X78148Y52474D01*
X78105Y52496D01*
X78083D01*
X77930Y52540D01*
X77755Y52561D01*
X77569Y52583D01*
X77383Y52605D01*
X77208D01*
X77143Y52616D01*
D02*
G37*
G36*
X69240D02*
X69044D01*
X68781Y52605D01*
X68541Y52594D01*
X68344Y52561D01*
X68180Y52540D01*
X68038Y52507D01*
X67940Y52474D01*
X67885Y52463D01*
X67863Y52452D01*
X67710Y52387D01*
X67568Y52321D01*
X67459Y52245D01*
X67360Y52168D01*
X67273Y52102D01*
X67218Y52048D01*
X67185Y52004D01*
X67175Y51993D01*
X67098Y51873D01*
X67032Y51753D01*
X66989Y51622D01*
X66967Y51512D01*
X66945Y51403D01*
X66934Y51326D01*
Y51272D01*
Y51250D01*
X66945Y51108D01*
X66967Y50977D01*
X67011Y50867D01*
X67054Y50758D01*
X67087Y50682D01*
X67131Y50616D01*
X67153Y50572D01*
X67164Y50561D01*
X67251Y50452D01*
X67349Y50365D01*
X67437Y50288D01*
X67524Y50233D01*
X67601Y50179D01*
X67666Y50146D01*
X67710Y50135D01*
X67721Y50124D01*
X67787Y50102D01*
X67874Y50069D01*
X68049Y50026D01*
X68257Y49982D01*
X68453Y49938D01*
X68639Y49895D01*
X68727Y49884D01*
X68792Y49862D01*
X68847Y49851D01*
X68901D01*
X68923Y49840D01*
X68934D01*
X69131Y49807D01*
X69295Y49774D01*
X69415Y49742D01*
X69503Y49720D01*
X69568Y49698D01*
X69612Y49676D01*
X69634Y49665D01*
X69645D01*
X69710Y49621D01*
X69754Y49578D01*
X69787Y49534D01*
X69809Y49490D01*
X69831Y49425D01*
Y49403D01*
Y49392D01*
X69820Y49337D01*
X69809Y49283D01*
X69754Y49195D01*
X69699Y49151D01*
X69688Y49130D01*
X69678D01*
X69601Y49086D01*
X69525Y49053D01*
X69361Y49009D01*
X69284Y48998D01*
X69218Y48987D01*
X69164D01*
X69055Y48998D01*
X68956Y49009D01*
X68869Y49031D01*
X68803Y49053D01*
X68748Y49075D01*
X68705Y49086D01*
X68683Y49108D01*
X68672D01*
X68606Y49162D01*
X68552Y49228D01*
X68475Y49381D01*
X68442Y49446D01*
X68421Y49490D01*
X68399Y49534D01*
Y49545D01*
X66748Y49392D01*
X66814Y49173D01*
X66912Y48976D01*
X67011Y48802D01*
X67120Y48670D01*
X67229Y48561D01*
X67317Y48485D01*
X67371Y48430D01*
X67393Y48419D01*
X67492Y48364D01*
X67612Y48310D01*
X67874Y48222D01*
X68147Y48168D01*
X68432Y48124D01*
X68563Y48113D01*
X68683Y48102D01*
X68792Y48091D01*
X68891D01*
X68978Y48080D01*
X69087D01*
X69382Y48091D01*
X69645Y48113D01*
X69874Y48146D01*
X70060Y48189D01*
X70213Y48222D01*
X70322Y48255D01*
X70388Y48277D01*
X70410Y48288D01*
X70585Y48375D01*
X70727Y48463D01*
X70858Y48561D01*
X70956Y48649D01*
X71033Y48725D01*
X71087Y48791D01*
X71120Y48834D01*
X71131Y48845D01*
X71208Y48976D01*
X71262Y49108D01*
X71306Y49239D01*
X71328Y49348D01*
X71350Y49446D01*
X71361Y49512D01*
Y49578D01*
X71350Y49709D01*
X71328Y49840D01*
X71295Y49960D01*
X71251Y50059D01*
X71208Y50135D01*
X71175Y50201D01*
X71153Y50244D01*
X71142Y50255D01*
X71055Y50365D01*
X70956Y50463D01*
X70847Y50550D01*
X70749Y50616D01*
X70661Y50671D01*
X70585Y50703D01*
X70541Y50725D01*
X70519Y50736D01*
X70355Y50802D01*
X70158Y50856D01*
X69951Y50900D01*
X69754Y50933D01*
X69568Y50966D01*
X69492Y50977D01*
X69415Y50988D01*
X69361D01*
X69317Y50999D01*
X69284D01*
X69098Y51020D01*
X68945Y51053D01*
X68814Y51075D01*
X68727Y51097D01*
X68650Y51119D01*
X68606Y51141D01*
X68585Y51152D01*
X68574D01*
X68519Y51184D01*
X68486Y51217D01*
X68442Y51305D01*
X68421Y51370D01*
Y51381D01*
Y51392D01*
X68432Y51447D01*
X68442Y51490D01*
X68486Y51567D01*
X68519Y51611D01*
X68541Y51632D01*
X68595Y51665D01*
X68661Y51698D01*
X68803Y51731D01*
X68858Y51742D01*
X69055D01*
X69153Y51720D01*
X69229Y51698D01*
X69306Y51676D01*
X69361Y51654D01*
X69404Y51632D01*
X69426Y51622D01*
X69437Y51611D01*
X69525Y51523D01*
X69590Y51425D01*
X69612Y51381D01*
X69634Y51337D01*
X69645Y51315D01*
Y51305D01*
X71219Y51458D01*
X71153Y51611D01*
X71087Y51742D01*
X71011Y51851D01*
X70945Y51949D01*
X70891Y52026D01*
X70847Y52081D01*
X70814Y52113D01*
X70803Y52124D01*
X70705Y52212D01*
X70596Y52288D01*
X70497Y52354D01*
X70399Y52408D01*
X70311Y52441D01*
X70246Y52474D01*
X70202Y52496D01*
X70180D01*
X70027Y52540D01*
X69852Y52561D01*
X69667Y52583D01*
X69481Y52605D01*
X69306D01*
X69240Y52616D01*
D02*
G37*
G36*
X91199Y52518D02*
X89516D01*
X88641Y49763D01*
X87800Y52518D01*
X86072D01*
X87876Y48179D01*
X89351D01*
X91199Y52518D01*
D02*
G37*
G36*
X85504D02*
X83843D01*
Y48179D01*
X85504D01*
Y52518D01*
D02*
G37*
G36*
X73886D02*
X72224D01*
Y48179D01*
X73886D01*
Y52518D01*
D02*
G37*
G36*
X58376Y54168D02*
X55075D01*
Y48179D01*
X56933D01*
Y50605D01*
X57086D01*
X57184Y50594D01*
X57272Y50583D01*
X57349Y50561D01*
X57414Y50539D01*
X57469Y50507D01*
X57512Y50485D01*
X57534Y50474D01*
X57545Y50463D01*
X57600Y50408D01*
X57665Y50343D01*
X57775Y50190D01*
X57819Y50124D01*
X57851Y50059D01*
X57873Y50015D01*
X57884Y50004D01*
X58879Y48179D01*
X60977D01*
X60070Y49905D01*
X60037Y49960D01*
X60005Y50015D01*
X59917Y50146D01*
X59873Y50190D01*
X59841Y50233D01*
X59819Y50266D01*
X59808Y50277D01*
X59742Y50365D01*
X59677Y50430D01*
X59633Y50485D01*
X59589Y50529D01*
X59556Y50561D01*
X59535Y50583D01*
X59513Y50594D01*
X59447Y50638D01*
X59370Y50671D01*
X59218Y50747D01*
X59141Y50769D01*
X59086Y50791D01*
X59043Y50813D01*
X59032D01*
X59174Y50856D01*
X59305Y50889D01*
X59414Y50933D01*
X59513Y50966D01*
X59578Y50999D01*
X59633Y51031D01*
X59666Y51042D01*
X59677Y51053D01*
X59808Y51141D01*
X59928Y51239D01*
X60026Y51337D01*
X60114Y51425D01*
X60179Y51512D01*
X60234Y51578D01*
X60256Y51622D01*
X60267Y51632D01*
X60343Y51775D01*
X60398Y51928D01*
X60431Y52070D01*
X60464Y52201D01*
X60474Y52321D01*
X60485Y52408D01*
Y52474D01*
Y52496D01*
X60474Y52704D01*
X60442Y52889D01*
X60398Y53053D01*
X60343Y53195D01*
X60289Y53316D01*
X60245Y53403D01*
X60212Y53447D01*
X60201Y53469D01*
X60092Y53611D01*
X59972Y53720D01*
X59851Y53818D01*
X59731Y53895D01*
X59633Y53950D01*
X59545Y53982D01*
X59491Y54004D01*
X59469Y54015D01*
X59283Y54070D01*
X59075Y54103D01*
X58857Y54135D01*
X58649Y54146D01*
X58452Y54157D01*
X58376Y54168D01*
D02*
G37*
G36*
X94073Y52616D02*
X93920D01*
X93713Y52605D01*
X93516Y52594D01*
X93330Y52561D01*
X93155Y52518D01*
X92991Y52474D01*
X92849Y52419D01*
X92707Y52354D01*
X92587Y52299D01*
X92478Y52245D01*
X92390Y52179D01*
X92303Y52124D01*
X92237Y52081D01*
X92182Y52037D01*
X92150Y52015D01*
X92128Y51993D01*
X92117Y51982D01*
X92007Y51862D01*
X91909Y51731D01*
X91822Y51600D01*
X91745Y51458D01*
X91680Y51315D01*
X91625Y51184D01*
X91549Y50922D01*
X91527Y50802D01*
X91505Y50692D01*
X91494Y50583D01*
X91483Y50496D01*
X91472Y50430D01*
Y50332D01*
X91483Y50069D01*
X91527Y49840D01*
X91570Y49621D01*
X91636Y49446D01*
X91690Y49293D01*
X91745Y49184D01*
X91756Y49140D01*
X91778Y49108D01*
X91789Y49097D01*
Y49086D01*
X91920Y48900D01*
X92051Y48747D01*
X92193Y48616D01*
X92325Y48507D01*
X92434Y48430D01*
X92532Y48364D01*
X92587Y48332D01*
X92609Y48321D01*
X92805Y48244D01*
X93024Y48179D01*
X93253Y48135D01*
X93472Y48113D01*
X93669Y48091D01*
X93745D01*
X93822Y48080D01*
X94150D01*
X94314Y48091D01*
X94478Y48102D01*
X94620Y48124D01*
X94762Y48146D01*
X94882Y48168D01*
X94991Y48200D01*
X95101Y48222D01*
X95188Y48244D01*
X95265Y48277D01*
X95330Y48299D01*
X95385Y48321D01*
X95429Y48342D01*
X95461Y48353D01*
X95472Y48364D01*
X95483D01*
X95680Y48485D01*
X95855Y48627D01*
X96008Y48791D01*
X96139Y48944D01*
X96248Y49086D01*
X96336Y49195D01*
X96358Y49239D01*
X96380Y49272D01*
X96401Y49293D01*
Y49304D01*
X94762Y49457D01*
X94707Y49381D01*
X94642Y49326D01*
X94598Y49272D01*
X94554Y49239D01*
X94489Y49184D01*
X94478Y49173D01*
X94467D01*
X94379Y49130D01*
X94303Y49108D01*
X94161Y49064D01*
X94095D01*
X94051Y49053D01*
X94008D01*
X93866Y49064D01*
X93745Y49097D01*
X93636Y49140D01*
X93549Y49195D01*
X93472Y49250D01*
X93418Y49293D01*
X93385Y49326D01*
X93374Y49337D01*
X93319Y49425D01*
X93275Y49512D01*
X93210Y49709D01*
X93188Y49796D01*
X93177Y49873D01*
X93166Y49916D01*
Y49938D01*
X96500D01*
Y50124D01*
X96489Y50430D01*
X96456Y50703D01*
X96412Y50933D01*
X96358Y51141D01*
X96303Y51294D01*
X96281Y51359D01*
X96259Y51414D01*
X96237Y51458D01*
X96227Y51490D01*
X96216Y51501D01*
Y51512D01*
X96095Y51698D01*
X95964Y51862D01*
X95833Y52004D01*
X95691Y52124D01*
X95571Y52212D01*
X95472Y52277D01*
X95407Y52321D01*
X95396Y52332D01*
X95385D01*
X95166Y52430D01*
X94926Y52496D01*
X94685Y52551D01*
X94456Y52583D01*
X94248Y52605D01*
X94150D01*
X94073Y52616D01*
D02*
G37*
G36*
X82072Y54168D02*
X80400Y53305D01*
Y52518D01*
X79788D01*
Y51305D01*
X80400D01*
Y49774D01*
X80411Y49523D01*
X80422Y49304D01*
X80444Y49119D01*
X80465Y48965D01*
X80487Y48856D01*
X80509Y48780D01*
X80531Y48725D01*
Y48714D01*
X80586Y48605D01*
X80662Y48507D01*
X80728Y48419D01*
X80804Y48353D01*
X80870Y48299D01*
X80924Y48266D01*
X80957Y48244D01*
X80968Y48233D01*
X81089Y48179D01*
X81242Y48146D01*
X81384Y48113D01*
X81537Y48102D01*
X81679Y48091D01*
X81788Y48080D01*
X81886D01*
X82094Y48091D01*
X82291Y48102D01*
X82487Y48124D01*
X82662Y48146D01*
X82815Y48168D01*
X82936Y48189D01*
X82979Y48200D01*
X83012Y48211D01*
X83045D01*
X82914Y49359D01*
X82793Y49326D01*
X82695Y49304D01*
X82608Y49283D01*
X82531Y49272D01*
X82477D01*
X82433Y49261D01*
X82400D01*
X82335Y49272D01*
X82269Y49283D01*
X82181Y49326D01*
X82138Y49370D01*
X82116Y49392D01*
X82105Y49435D01*
X82094Y49490D01*
X82083Y49610D01*
X82072Y49665D01*
Y49720D01*
Y49753D01*
Y49763D01*
Y51305D01*
X82990D01*
Y52518D01*
X82072D01*
Y54168D01*
D02*
G37*
G36*
X63852Y52616D02*
X63699D01*
X63491Y52605D01*
X63294Y52594D01*
X63109Y52561D01*
X62934Y52518D01*
X62770Y52474D01*
X62628Y52419D01*
X62486Y52354D01*
X62365Y52299D01*
X62256Y52245D01*
X62169Y52179D01*
X62081Y52124D01*
X62016Y52081D01*
X61961Y52037D01*
X61928Y52015D01*
X61906Y51993D01*
X61895Y51982D01*
X61786Y51862D01*
X61688Y51731D01*
X61600Y51600D01*
X61524Y51458D01*
X61458Y51315D01*
X61404Y51184D01*
X61327Y50922D01*
X61305Y50802D01*
X61283Y50692D01*
X61272Y50583D01*
X61261Y50496D01*
X61251Y50430D01*
Y50332D01*
X61261Y50069D01*
X61305Y49840D01*
X61349Y49621D01*
X61414Y49446D01*
X61469Y49293D01*
X61524Y49184D01*
X61535Y49140D01*
X61557Y49108D01*
X61567Y49097D01*
Y49086D01*
X61699Y48900D01*
X61830Y48747D01*
X61972Y48616D01*
X62103Y48507D01*
X62212Y48430D01*
X62311Y48364D01*
X62365Y48332D01*
X62387Y48321D01*
X62584Y48244D01*
X62803Y48179D01*
X63032Y48135D01*
X63251Y48113D01*
X63447Y48091D01*
X63524D01*
X63600Y48080D01*
X63928D01*
X64092Y48091D01*
X64256Y48102D01*
X64398Y48124D01*
X64540Y48146D01*
X64661Y48168D01*
X64770Y48200D01*
X64879Y48222D01*
X64967Y48244D01*
X65043Y48277D01*
X65109Y48299D01*
X65163Y48321D01*
X65207Y48342D01*
X65240Y48353D01*
X65251Y48364D01*
X65262D01*
X65459Y48485D01*
X65633Y48627D01*
X65786Y48791D01*
X65918Y48944D01*
X66027Y49086D01*
X66114Y49195D01*
X66136Y49239D01*
X66158Y49272D01*
X66180Y49293D01*
Y49304D01*
X64540Y49457D01*
X64486Y49381D01*
X64420Y49326D01*
X64376Y49272D01*
X64333Y49239D01*
X64267Y49184D01*
X64256Y49173D01*
X64245D01*
X64158Y49130D01*
X64081Y49108D01*
X63939Y49064D01*
X63874D01*
X63830Y49053D01*
X63786D01*
X63644Y49064D01*
X63524Y49097D01*
X63415Y49140D01*
X63327Y49195D01*
X63251Y49250D01*
X63196Y49293D01*
X63163Y49326D01*
X63152Y49337D01*
X63098Y49425D01*
X63054Y49512D01*
X62988Y49709D01*
X62967Y49796D01*
X62956Y49873D01*
X62945Y49916D01*
Y49938D01*
X66278D01*
Y50124D01*
X66267Y50430D01*
X66235Y50703D01*
X66191Y50933D01*
X66136Y51141D01*
X66082Y51294D01*
X66060Y51359D01*
X66038Y51414D01*
X66016Y51458D01*
X66005Y51490D01*
X65994Y51501D01*
Y51512D01*
X65874Y51698D01*
X65743Y51862D01*
X65612Y52004D01*
X65469Y52124D01*
X65349Y52212D01*
X65251Y52277D01*
X65185Y52321D01*
X65174Y52332D01*
X65163D01*
X64945Y52430D01*
X64704Y52496D01*
X64464Y52551D01*
X64234Y52583D01*
X64027Y52605D01*
X63928D01*
X63852Y52616D01*
D02*
G37*
G36*
X74782Y46882D02*
X73120D01*
Y45746D01*
X74782D01*
Y46882D01*
D02*
G37*
G36*
X67732Y45330D02*
X67645D01*
X67481Y45319D01*
X67339Y45297D01*
X67196Y45265D01*
X67076Y45232D01*
X66978Y45199D01*
X66901Y45166D01*
X66858Y45144D01*
X66836Y45134D01*
X66737Y45068D01*
X66628Y44991D01*
X66530Y44893D01*
X66442Y44806D01*
X66366Y44718D01*
X66300Y44653D01*
X66256Y44609D01*
X66246Y44587D01*
Y45232D01*
X64693D01*
Y39242D01*
X66377D01*
Y41308D01*
X66475Y41221D01*
X66562Y41144D01*
X66661Y41078D01*
X66748Y41024D01*
X66825Y40980D01*
X66879Y40947D01*
X66923Y40936D01*
X66934Y40925D01*
X67054Y40882D01*
X67175Y40849D01*
X67295Y40827D01*
X67404Y40816D01*
X67492Y40805D01*
X67568Y40794D01*
X67634D01*
X67776Y40805D01*
X67918Y40816D01*
X68180Y40882D01*
X68399Y40969D01*
X68585Y41078D01*
X68738Y41188D01*
X68858Y41275D01*
X68891Y41308D01*
X68923Y41341D01*
X68934Y41352D01*
X68945Y41363D01*
X69033Y41472D01*
X69120Y41592D01*
X69251Y41865D01*
X69339Y42139D01*
X69404Y42401D01*
X69426Y42521D01*
X69448Y42641D01*
X69459Y42740D01*
Y42838D01*
X69470Y42915D01*
Y43199D01*
X69448Y43363D01*
X69393Y43691D01*
X69317Y43964D01*
X69273Y44095D01*
X69229Y44204D01*
X69186Y44314D01*
X69142Y44401D01*
X69098Y44478D01*
X69065Y44543D01*
X69033Y44598D01*
X69011Y44631D01*
X69000Y44653D01*
X68989Y44664D01*
X68901Y44784D01*
X68792Y44882D01*
X68694Y44969D01*
X68585Y45046D01*
X68464Y45112D01*
X68355Y45166D01*
X68136Y45243D01*
X67951Y45297D01*
X67863Y45308D01*
X67787Y45319D01*
X67732Y45330D01*
D02*
G37*
G36*
X91559D02*
X91494D01*
X91363Y45319D01*
X91253Y45308D01*
X91144Y45276D01*
X91057Y45243D01*
X90991Y45210D01*
X90936Y45188D01*
X90904Y45166D01*
X90893Y45155D01*
X90805Y45079D01*
X90729Y44980D01*
X90576Y44773D01*
X90521Y44674D01*
X90477Y44598D01*
X90444Y44543D01*
X90434Y44521D01*
Y45232D01*
X88881D01*
Y40893D01*
X90554D01*
Y42346D01*
Y42532D01*
X90565Y42707D01*
X90576Y42860D01*
X90598Y43002D01*
X90609Y43133D01*
X90630Y43253D01*
X90652Y43352D01*
X90685Y43450D01*
X90707Y43527D01*
X90729Y43592D01*
X90751Y43647D01*
X90762Y43691D01*
X90794Y43745D01*
X90805Y43767D01*
X90882Y43855D01*
X90969Y43920D01*
X91046Y43975D01*
X91133Y44008D01*
X91210Y44030D01*
X91264Y44041D01*
X91385D01*
X91461Y44019D01*
X91614Y43975D01*
X91680Y43953D01*
X91734Y43931D01*
X91767Y43920D01*
X91778Y43909D01*
X92303Y45101D01*
X92139Y45177D01*
X91986Y45232D01*
X91855Y45276D01*
X91734Y45297D01*
X91636Y45319D01*
X91559Y45330D01*
D02*
G37*
G36*
X61764D02*
X61567D01*
X61305Y45319D01*
X61065Y45308D01*
X60868Y45276D01*
X60704Y45254D01*
X60562Y45221D01*
X60464Y45188D01*
X60409Y45177D01*
X60387Y45166D01*
X60234Y45101D01*
X60092Y45035D01*
X59983Y44959D01*
X59884Y44882D01*
X59797Y44816D01*
X59742Y44762D01*
X59709Y44718D01*
X59698Y44707D01*
X59622Y44587D01*
X59556Y44467D01*
X59513Y44336D01*
X59491Y44226D01*
X59469Y44117D01*
X59458Y44041D01*
Y43986D01*
Y43964D01*
X59469Y43822D01*
X59491Y43691D01*
X59535Y43581D01*
X59578Y43472D01*
X59611Y43396D01*
X59655Y43330D01*
X59677Y43286D01*
X59688Y43275D01*
X59775Y43166D01*
X59873Y43079D01*
X59961Y43002D01*
X60048Y42948D01*
X60125Y42893D01*
X60190Y42860D01*
X60234Y42849D01*
X60245Y42838D01*
X60311Y42816D01*
X60398Y42783D01*
X60573Y42740D01*
X60781Y42696D01*
X60977Y42652D01*
X61163Y42609D01*
X61251Y42598D01*
X61316Y42576D01*
X61371Y42565D01*
X61425D01*
X61447Y42554D01*
X61458D01*
X61655Y42521D01*
X61819Y42488D01*
X61939Y42456D01*
X62027Y42434D01*
X62092Y42412D01*
X62136Y42390D01*
X62158Y42379D01*
X62169D01*
X62234Y42335D01*
X62278Y42292D01*
X62311Y42248D01*
X62333Y42204D01*
X62354Y42139D01*
Y42117D01*
Y42106D01*
X62344Y42051D01*
X62333Y41997D01*
X62278Y41909D01*
X62223Y41865D01*
X62212Y41844D01*
X62201D01*
X62125Y41800D01*
X62048Y41767D01*
X61884Y41723D01*
X61808Y41712D01*
X61742Y41701D01*
X61688D01*
X61578Y41712D01*
X61480Y41723D01*
X61393Y41745D01*
X61327Y41767D01*
X61272Y41789D01*
X61229Y41800D01*
X61207Y41822D01*
X61196D01*
X61130Y41876D01*
X61076Y41942D01*
X60999Y42095D01*
X60966Y42160D01*
X60944Y42204D01*
X60923Y42248D01*
Y42259D01*
X59272Y42106D01*
X59338Y41887D01*
X59436Y41690D01*
X59535Y41516D01*
X59644Y41385D01*
X59753Y41275D01*
X59841Y41199D01*
X59895Y41144D01*
X59917Y41133D01*
X60015Y41078D01*
X60136Y41024D01*
X60398Y40936D01*
X60671Y40882D01*
X60955Y40838D01*
X61086Y40827D01*
X61207Y40816D01*
X61316Y40805D01*
X61414D01*
X61502Y40794D01*
X61611D01*
X61906Y40805D01*
X62169Y40827D01*
X62398Y40860D01*
X62584Y40904D01*
X62737Y40936D01*
X62846Y40969D01*
X62912Y40991D01*
X62934Y41002D01*
X63109Y41089D01*
X63251Y41177D01*
X63382Y41275D01*
X63480Y41363D01*
X63557Y41439D01*
X63611Y41505D01*
X63644Y41548D01*
X63655Y41559D01*
X63732Y41690D01*
X63786Y41822D01*
X63830Y41953D01*
X63852Y42062D01*
X63874Y42160D01*
X63885Y42226D01*
Y42292D01*
X63874Y42423D01*
X63852Y42554D01*
X63819Y42674D01*
X63775Y42773D01*
X63732Y42849D01*
X63699Y42915D01*
X63677Y42958D01*
X63666Y42969D01*
X63579Y43079D01*
X63480Y43177D01*
X63371Y43264D01*
X63273Y43330D01*
X63185Y43385D01*
X63109Y43418D01*
X63065Y43439D01*
X63043Y43450D01*
X62879Y43516D01*
X62682Y43571D01*
X62475Y43614D01*
X62278Y43647D01*
X62092Y43680D01*
X62016Y43691D01*
X61939Y43702D01*
X61884D01*
X61841Y43713D01*
X61808D01*
X61622Y43734D01*
X61469Y43767D01*
X61338Y43789D01*
X61251Y43811D01*
X61174Y43833D01*
X61130Y43855D01*
X61108Y43866D01*
X61098D01*
X61043Y43898D01*
X61010Y43931D01*
X60966Y44019D01*
X60944Y44084D01*
Y44095D01*
Y44106D01*
X60955Y44161D01*
X60966Y44204D01*
X61010Y44281D01*
X61043Y44325D01*
X61065Y44346D01*
X61119Y44379D01*
X61185Y44412D01*
X61327Y44445D01*
X61382Y44456D01*
X61578D01*
X61677Y44434D01*
X61753Y44412D01*
X61830Y44390D01*
X61884Y44368D01*
X61928Y44346D01*
X61950Y44336D01*
X61961Y44325D01*
X62048Y44237D01*
X62114Y44139D01*
X62136Y44095D01*
X62158Y44051D01*
X62169Y44030D01*
Y44019D01*
X63743Y44172D01*
X63677Y44325D01*
X63611Y44456D01*
X63535Y44565D01*
X63469Y44664D01*
X63415Y44740D01*
X63371Y44795D01*
X63338Y44827D01*
X63327Y44838D01*
X63229Y44926D01*
X63120Y45002D01*
X63021Y45068D01*
X62923Y45123D01*
X62835Y45155D01*
X62770Y45188D01*
X62726Y45210D01*
X62704D01*
X62551Y45254D01*
X62376Y45276D01*
X62191Y45297D01*
X62005Y45319D01*
X61830D01*
X61764Y45330D01*
D02*
G37*
G36*
X74782Y45232D02*
X73120D01*
Y40893D01*
X74782D01*
Y45232D01*
D02*
G37*
G36*
X71995Y46882D02*
X70322D01*
Y40893D01*
X71995D01*
Y46882D01*
D02*
G37*
G36*
X85668Y45330D02*
X85515D01*
X85307Y45319D01*
X85111Y45308D01*
X84925Y45276D01*
X84750Y45232D01*
X84586Y45188D01*
X84444Y45134D01*
X84302Y45068D01*
X84182Y45013D01*
X84072Y44959D01*
X83985Y44893D01*
X83898Y44838D01*
X83832Y44795D01*
X83777Y44751D01*
X83744Y44729D01*
X83723Y44707D01*
X83712Y44696D01*
X83602Y44576D01*
X83504Y44445D01*
X83416Y44314D01*
X83340Y44172D01*
X83275Y44030D01*
X83220Y43898D01*
X83143Y43636D01*
X83121Y43516D01*
X83100Y43407D01*
X83089Y43297D01*
X83078Y43210D01*
X83067Y43144D01*
Y43046D01*
X83078Y42783D01*
X83121Y42554D01*
X83165Y42335D01*
X83231Y42160D01*
X83285Y42007D01*
X83340Y41898D01*
X83351Y41855D01*
X83373Y41822D01*
X83384Y41811D01*
Y41800D01*
X83515Y41614D01*
X83646Y41461D01*
X83788Y41330D01*
X83919Y41221D01*
X84029Y41144D01*
X84127Y41078D01*
X84182Y41046D01*
X84203Y41035D01*
X84400Y40958D01*
X84619Y40893D01*
X84848Y40849D01*
X85067Y40827D01*
X85264Y40805D01*
X85340D01*
X85417Y40794D01*
X85745D01*
X85909Y40805D01*
X86072Y40816D01*
X86215Y40838D01*
X86357Y40860D01*
X86477Y40882D01*
X86586Y40914D01*
X86695Y40936D01*
X86783Y40958D01*
X86860Y40991D01*
X86925Y41013D01*
X86980Y41035D01*
X87023Y41057D01*
X87056Y41067D01*
X87067Y41078D01*
X87078D01*
X87275Y41199D01*
X87450Y41341D01*
X87603Y41505D01*
X87734Y41658D01*
X87843Y41800D01*
X87931Y41909D01*
X87953Y41953D01*
X87974Y41986D01*
X87996Y42007D01*
Y42018D01*
X86357Y42171D01*
X86302Y42095D01*
X86237Y42040D01*
X86193Y41986D01*
X86149Y41953D01*
X86084Y41898D01*
X86072Y41887D01*
X86062D01*
X85974Y41844D01*
X85898Y41822D01*
X85756Y41778D01*
X85690D01*
X85646Y41767D01*
X85602D01*
X85461Y41778D01*
X85340Y41811D01*
X85231Y41855D01*
X85144Y41909D01*
X85067Y41964D01*
X85012Y42007D01*
X84979Y42040D01*
X84969Y42051D01*
X84914Y42139D01*
X84870Y42226D01*
X84805Y42423D01*
X84783Y42510D01*
X84772Y42587D01*
X84761Y42630D01*
Y42652D01*
X88095D01*
Y42838D01*
X88084Y43144D01*
X88051Y43418D01*
X88007Y43647D01*
X87953Y43855D01*
X87898Y44008D01*
X87876Y44073D01*
X87854Y44128D01*
X87832Y44172D01*
X87821Y44204D01*
X87810Y44215D01*
Y44226D01*
X87690Y44412D01*
X87559Y44576D01*
X87428Y44718D01*
X87286Y44838D01*
X87165Y44926D01*
X87067Y44991D01*
X87002Y45035D01*
X86991Y45046D01*
X86980D01*
X86761Y45144D01*
X86521Y45210D01*
X86280Y45265D01*
X86051Y45297D01*
X85843Y45319D01*
X85745D01*
X85668Y45330D01*
D02*
G37*
G36*
X81569Y46882D02*
X79897Y46019D01*
Y45232D01*
X79285D01*
Y44019D01*
X79897D01*
Y42488D01*
X79908Y42237D01*
X79919Y42018D01*
X79941Y41833D01*
X79963Y41680D01*
X79984Y41570D01*
X80006Y41494D01*
X80028Y41439D01*
Y41428D01*
X80083Y41319D01*
X80159Y41221D01*
X80225Y41133D01*
X80301Y41067D01*
X80367Y41013D01*
X80422Y40980D01*
X80454Y40958D01*
X80465Y40947D01*
X80586Y40893D01*
X80739Y40860D01*
X80881Y40827D01*
X81034Y40816D01*
X81176Y40805D01*
X81285Y40794D01*
X81384D01*
X81591Y40805D01*
X81788Y40816D01*
X81985Y40838D01*
X82160Y40860D01*
X82313Y40882D01*
X82433Y40904D01*
X82477Y40914D01*
X82509Y40925D01*
X82542D01*
X82411Y42073D01*
X82291Y42040D01*
X82192Y42018D01*
X82105Y41997D01*
X82028Y41986D01*
X81974D01*
X81930Y41975D01*
X81897D01*
X81832Y41986D01*
X81766Y41997D01*
X81679Y42040D01*
X81635Y42084D01*
X81613Y42106D01*
X81602Y42150D01*
X81591Y42204D01*
X81580Y42325D01*
X81569Y42379D01*
Y42434D01*
Y42467D01*
Y42478D01*
Y44019D01*
X82487D01*
Y45232D01*
X81569D01*
Y46882D01*
D02*
G37*
G36*
X77853D02*
X76181Y46019D01*
Y45232D01*
X75569D01*
Y44019D01*
X76181D01*
Y42488D01*
X76192Y42237D01*
X76203Y42018D01*
X76225Y41833D01*
X76247Y41680D01*
X76268Y41570D01*
X76290Y41494D01*
X76312Y41439D01*
Y41428D01*
X76367Y41319D01*
X76443Y41221D01*
X76509Y41133D01*
X76585Y41067D01*
X76651Y41013D01*
X76705Y40980D01*
X76738Y40958D01*
X76749Y40947D01*
X76869Y40893D01*
X77022Y40860D01*
X77165Y40827D01*
X77318Y40816D01*
X77460Y40805D01*
X77569Y40794D01*
X77667D01*
X77875Y40805D01*
X78072Y40816D01*
X78268Y40838D01*
X78443Y40860D01*
X78596Y40882D01*
X78717Y40904D01*
X78760Y40914D01*
X78793Y40925D01*
X78826D01*
X78695Y42073D01*
X78575Y42040D01*
X78476Y42018D01*
X78389Y41997D01*
X78312Y41986D01*
X78258D01*
X78214Y41975D01*
X78181D01*
X78115Y41986D01*
X78050Y41997D01*
X77962Y42040D01*
X77919Y42084D01*
X77897Y42106D01*
X77886Y42150D01*
X77875Y42204D01*
X77864Y42325D01*
X77853Y42379D01*
Y42434D01*
Y42467D01*
Y42478D01*
Y44019D01*
X78771D01*
Y45232D01*
X77853D01*
Y46882D01*
D02*
G37*
G36*
X76421Y37946D02*
X74541D01*
X73208Y33629D01*
X71864Y37946D01*
X69929D01*
X72191Y31956D01*
X74192D01*
X76421Y37946D01*
D02*
G37*
G36*
X79318Y38044D02*
X79176D01*
X78881Y38033D01*
X78618Y38012D01*
X78389Y37979D01*
X78203Y37935D01*
X78050Y37891D01*
X77941Y37859D01*
X77875Y37837D01*
X77864Y37826D01*
X77853D01*
X77678Y37738D01*
X77536Y37640D01*
X77405Y37541D01*
X77307Y37443D01*
X77219Y37356D01*
X77154Y37290D01*
X77121Y37246D01*
X77110Y37225D01*
X77022Y37061D01*
X76946Y36886D01*
X76891Y36711D01*
X76837Y36536D01*
X76804Y36372D01*
X76782Y36252D01*
X76771Y36197D01*
X76760Y36164D01*
Y36143D01*
Y36132D01*
X78433Y36000D01*
X78465Y36175D01*
X78498Y36317D01*
X78542Y36438D01*
X78585Y36536D01*
X78629Y36612D01*
X78662Y36667D01*
X78684Y36689D01*
X78695Y36700D01*
X78782Y36766D01*
X78870Y36820D01*
X78957Y36853D01*
X79034Y36886D01*
X79110Y36897D01*
X79165Y36908D01*
X79219D01*
X79329Y36897D01*
X79427Y36875D01*
X79514Y36842D01*
X79591Y36809D01*
X79657Y36776D01*
X79700Y36744D01*
X79722Y36722D01*
X79733Y36711D01*
X79799Y36634D01*
X79853Y36558D01*
X79886Y36481D01*
X79919Y36405D01*
X79930Y36339D01*
X79941Y36285D01*
Y36252D01*
Y36241D01*
X79930Y36143D01*
X79908Y36055D01*
X79875Y35957D01*
X79842Y35880D01*
X79799Y35804D01*
X79766Y35749D01*
X79744Y35716D01*
X79733Y35705D01*
X79689Y35651D01*
X79635Y35585D01*
X79504Y35454D01*
X79340Y35323D01*
X79187Y35181D01*
X79034Y35060D01*
X78913Y34962D01*
X78859Y34929D01*
X78826Y34896D01*
X78804Y34885D01*
X78793Y34875D01*
X78575Y34711D01*
X78378Y34558D01*
X78192Y34405D01*
X78028Y34262D01*
X77875Y34120D01*
X77744Y34000D01*
X77624Y33880D01*
X77525Y33771D01*
X77438Y33672D01*
X77350Y33585D01*
X77296Y33508D01*
X77241Y33454D01*
X77197Y33399D01*
X77175Y33366D01*
X77165Y33344D01*
X77154Y33333D01*
X77012Y33093D01*
X76891Y32842D01*
X76804Y32612D01*
X76738Y32404D01*
X76684Y32219D01*
X76673Y32142D01*
X76662Y32076D01*
X76651Y32033D01*
X76640Y31989D01*
Y31956D01*
X81646D01*
Y33312D01*
X79034D01*
X79198Y33454D01*
X79318Y33574D01*
X79361Y33607D01*
X79394Y33639D01*
X79416Y33650D01*
X79427Y33661D01*
X79504Y33727D01*
X79602Y33803D01*
X79722Y33880D01*
X79831Y33957D01*
X79941Y34033D01*
X80028Y34099D01*
X80083Y34142D01*
X80105Y34153D01*
X80258Y34262D01*
X80400Y34372D01*
X80531Y34481D01*
X80651Y34580D01*
X80750Y34678D01*
X80848Y34765D01*
X81012Y34929D01*
X81132Y35060D01*
X81209Y35159D01*
X81263Y35224D01*
X81274Y35246D01*
X81384Y35432D01*
X81460Y35618D01*
X81526Y35804D01*
X81558Y35957D01*
X81580Y36099D01*
X81602Y36208D01*
Y36241D01*
Y36274D01*
Y36285D01*
Y36296D01*
X81591Y36481D01*
X81558Y36656D01*
X81515Y36820D01*
X81460Y36951D01*
X81405Y37071D01*
X81362Y37148D01*
X81329Y37203D01*
X81318Y37225D01*
X81209Y37367D01*
X81077Y37498D01*
X80946Y37596D01*
X80826Y37684D01*
X80717Y37749D01*
X80619Y37804D01*
X80564Y37826D01*
X80553Y37837D01*
X80542D01*
X80345Y37902D01*
X80127Y37957D01*
X79897Y37990D01*
X79678Y38022D01*
X79482Y38033D01*
X79394D01*
X79318Y38044D01*
D02*
G37*
G36*
X71465Y30758D02*
X71344D01*
X71126Y30747D01*
X70918Y30725D01*
X70721Y30693D01*
X70535Y30638D01*
X70372Y30583D01*
X70219Y30518D01*
X70077Y30452D01*
X69945Y30387D01*
X69836Y30310D01*
X69738Y30245D01*
X69650Y30179D01*
X69574Y30124D01*
X69519Y30070D01*
X69486Y30037D01*
X69464Y30015D01*
X69454Y30004D01*
X69333Y29851D01*
X69235Y29687D01*
X69137Y29501D01*
X69060Y29316D01*
X68994Y29119D01*
X68940Y28922D01*
X68863Y28539D01*
X68831Y28354D01*
X68809Y28179D01*
X68798Y28026D01*
X68787Y27895D01*
X68776Y27785D01*
Y27425D01*
X68787Y27239D01*
X68809Y27053D01*
X68831Y26889D01*
X68852Y26725D01*
X68874Y26583D01*
X68907Y26441D01*
X68940Y26321D01*
X68962Y26212D01*
X68994Y26124D01*
X69016Y26037D01*
X69049Y25971D01*
X69060Y25916D01*
X69082Y25884D01*
X69093Y25862D01*
Y25851D01*
X69224Y25621D01*
X69366Y25414D01*
X69519Y25250D01*
X69650Y25118D01*
X69781Y25009D01*
X69880Y24933D01*
X69945Y24889D01*
X69956Y24878D01*
X69967D01*
X70186Y24780D01*
X70426Y24703D01*
X70667Y24648D01*
X70896Y24616D01*
X71093Y24594D01*
X71180Y24583D01*
X71257Y24572D01*
X71410D01*
X71672Y24583D01*
X71913Y24605D01*
X72131Y24648D01*
X72306Y24692D01*
X72448Y24736D01*
X72558Y24780D01*
X72623Y24802D01*
X72645Y24812D01*
X72820Y24922D01*
X72984Y25031D01*
X73115Y25162D01*
X73224Y25282D01*
X73312Y25392D01*
X73377Y25479D01*
X73421Y25534D01*
X73432Y25556D01*
X73530Y25741D01*
X73596Y25927D01*
X73651Y26113D01*
X73683Y26277D01*
X73705Y26430D01*
X73716Y26539D01*
Y26638D01*
X73705Y26802D01*
X73694Y26955D01*
X73629Y27228D01*
X73541Y27479D01*
X73443Y27687D01*
X73388Y27774D01*
X73334Y27851D01*
X73290Y27928D01*
X73246Y27982D01*
X73213Y28026D01*
X73181Y28059D01*
X73170Y28069D01*
X73159Y28080D01*
X73049Y28179D01*
X72940Y28277D01*
X72831Y28354D01*
X72711Y28419D01*
X72481Y28518D01*
X72263Y28583D01*
X72077Y28627D01*
X72000Y28638D01*
X71924Y28649D01*
X71869Y28660D01*
X71793D01*
X71650Y28649D01*
X71508Y28638D01*
X71388Y28616D01*
X71279Y28583D01*
X71191Y28550D01*
X71126Y28529D01*
X71082Y28518D01*
X71071Y28507D01*
X70951Y28452D01*
X70842Y28376D01*
X70743Y28299D01*
X70645Y28234D01*
X70568Y28168D01*
X70514Y28113D01*
X70470Y28069D01*
X70459Y28059D01*
X70470Y28234D01*
X70492Y28387D01*
X70514Y28529D01*
X70525Y28660D01*
X70547Y28780D01*
X70568Y28878D01*
X70590Y28966D01*
X70612Y29053D01*
X70623Y29119D01*
X70645Y29173D01*
X70678Y29250D01*
X70689Y29305D01*
X70700Y29316D01*
X70787Y29458D01*
X70896Y29556D01*
X70995Y29632D01*
X71104Y29676D01*
X71191Y29709D01*
X71268Y29720D01*
X71312Y29731D01*
X71333D01*
X71410Y29720D01*
X71487Y29709D01*
X71607Y29654D01*
X71650Y29622D01*
X71683Y29600D01*
X71694Y29589D01*
X71705Y29578D01*
X71760Y29512D01*
X71803Y29447D01*
X71880Y29283D01*
X71902Y29217D01*
X71924Y29152D01*
X71935Y29108D01*
Y29097D01*
X73585Y29294D01*
X73519Y29469D01*
X73454Y29632D01*
X73388Y29764D01*
X73312Y29884D01*
X73257Y29971D01*
X73203Y30048D01*
X73170Y30092D01*
X73159Y30103D01*
X73049Y30212D01*
X72940Y30310D01*
X72820Y30398D01*
X72711Y30463D01*
X72612Y30518D01*
X72536Y30551D01*
X72492Y30573D01*
X72470Y30583D01*
X72306Y30638D01*
X72120Y30682D01*
X71935Y30715D01*
X71749Y30737D01*
X71596Y30747D01*
X71465Y30758D01*
D02*
G37*
G36*
X79083Y30660D02*
X77400D01*
Y28583D01*
X77301Y28671D01*
X77203Y28758D01*
X77105Y28824D01*
X77017Y28878D01*
X76941Y28922D01*
X76886Y28955D01*
X76842Y28966D01*
X76831Y28977D01*
X76711Y29021D01*
X76591Y29053D01*
X76471Y29075D01*
X76361Y29097D01*
X76274D01*
X76197Y29108D01*
X76132D01*
X75990Y29097D01*
X75848Y29086D01*
X75585Y29021D01*
X75367Y28922D01*
X75181Y28824D01*
X75028Y28714D01*
X74919Y28616D01*
X74875Y28583D01*
X74842Y28550D01*
X74831Y28539D01*
X74820Y28529D01*
X74733Y28419D01*
X74656Y28299D01*
X74525Y28037D01*
X74437Y27753D01*
X74372Y27490D01*
X74350Y27370D01*
X74339Y27250D01*
X74317Y27151D01*
Y27053D01*
X74306Y26987D01*
Y26878D01*
X74328Y26528D01*
X74383Y26212D01*
X74449Y25938D01*
X74492Y25807D01*
X74536Y25698D01*
X74580Y25599D01*
X74623Y25501D01*
X74656Y25425D01*
X74689Y25359D01*
X74722Y25304D01*
X74744Y25271D01*
X74765Y25250D01*
Y25239D01*
X74864Y25118D01*
X74962Y25020D01*
X75061Y24933D01*
X75181Y24856D01*
X75290Y24791D01*
X75399Y24736D01*
X75618Y24659D01*
X75815Y24605D01*
X75902Y24594D01*
X75979Y24583D01*
X76033Y24572D01*
X76121D01*
X76285Y24583D01*
X76427Y24605D01*
X76569Y24627D01*
X76689Y24670D01*
X76777Y24703D01*
X76853Y24725D01*
X76908Y24747D01*
X76919Y24758D01*
X77028Y24823D01*
X77126Y24900D01*
X77225Y24998D01*
X77323Y25086D01*
X77400Y25173D01*
X77465Y25239D01*
X77509Y25282D01*
X77520Y25304D01*
Y24670D01*
X79083D01*
Y30660D01*
D02*
G37*
G36*
X68240Y27501D02*
X65825D01*
Y26212D01*
X68240D01*
Y27501D01*
D02*
G37*
G36*
X83761Y30660D02*
X80209D01*
Y24670D01*
X83499D01*
X83619Y24681D01*
X83750Y24692D01*
X83892Y24714D01*
X84023Y24725D01*
X84132Y24736D01*
X84176D01*
X84209Y24747D01*
X84231D01*
X84395Y24780D01*
X84537Y24802D01*
X84657Y24834D01*
X84755Y24867D01*
X84832Y24900D01*
X84887Y24922D01*
X84919Y24944D01*
X84930D01*
X85062Y25031D01*
X85182Y25129D01*
X85291Y25228D01*
X85378Y25326D01*
X85444Y25403D01*
X85488Y25468D01*
X85521Y25523D01*
X85532Y25534D01*
X85608Y25676D01*
X85663Y25818D01*
X85695Y25960D01*
X85728Y26091D01*
X85739Y26201D01*
X85750Y26288D01*
Y26364D01*
X85739Y26572D01*
X85706Y26758D01*
X85652Y26922D01*
X85597Y27053D01*
X85542Y27162D01*
X85488Y27250D01*
X85455Y27294D01*
X85444Y27315D01*
X85313Y27446D01*
X85171Y27556D01*
X85007Y27654D01*
X84854Y27731D01*
X84712Y27785D01*
X84602Y27818D01*
X84559Y27840D01*
X84526D01*
X84504Y27851D01*
X84493D01*
X84646Y27916D01*
X84777Y27982D01*
X84887Y28048D01*
X84974Y28113D01*
X85051Y28168D01*
X85094Y28212D01*
X85127Y28244D01*
X85138Y28255D01*
X85247Y28408D01*
X85335Y28561D01*
X85389Y28714D01*
X85433Y28857D01*
X85455Y28977D01*
X85477Y29075D01*
Y29141D01*
Y29152D01*
Y29162D01*
Y29283D01*
X85455Y29392D01*
X85400Y29600D01*
X85324Y29775D01*
X85247Y29928D01*
X85160Y30059D01*
X85083Y30146D01*
X85029Y30201D01*
X85018Y30223D01*
X85007D01*
X84810Y30365D01*
X84602Y30474D01*
X84384Y30551D01*
X84165Y30605D01*
X83969Y30638D01*
X83892Y30649D01*
X83815D01*
X83761Y30660D01*
D02*
G37*
%LPD*%
G36*
X57917Y52944D02*
X58070Y52933D01*
X58190Y52900D01*
X58289Y52878D01*
X58354Y52846D01*
X58409Y52813D01*
X58431Y52802D01*
X58442Y52791D01*
X58507Y52725D01*
X58551Y52660D01*
X58584Y52583D01*
X58605Y52518D01*
X58616Y52452D01*
X58627Y52398D01*
Y52365D01*
Y52354D01*
Y52277D01*
X58605Y52212D01*
X58573Y52102D01*
X58551Y52059D01*
X58529Y52037D01*
X58518Y52015D01*
X58507Y52004D01*
X58463Y51949D01*
X58409Y51906D01*
X58310Y51851D01*
X58267Y51840D01*
X58234Y51829D01*
X58212Y51818D01*
X58201D01*
X58081Y51796D01*
X57972Y51775D01*
X57884Y51764D01*
X57819Y51753D01*
X57775Y51742D01*
X56933D01*
Y52955D01*
X57742D01*
X57917Y52944D01*
D02*
G37*
G36*
X94106Y51622D02*
X94226Y51600D01*
X94314Y51567D01*
X94401Y51523D01*
X94456Y51479D01*
X94511Y51447D01*
X94532Y51425D01*
X94543Y51414D01*
X94620Y51326D01*
X94674Y51217D01*
X94718Y51108D01*
X94751Y50999D01*
X94773Y50900D01*
X94795Y50813D01*
X94806Y50758D01*
Y50747D01*
Y50736D01*
X93166D01*
X93188Y50867D01*
X93210Y50988D01*
X93243Y51086D01*
X93275Y51173D01*
X93308Y51228D01*
X93330Y51283D01*
X93341Y51305D01*
X93352Y51315D01*
X93450Y51425D01*
X93549Y51501D01*
X93658Y51556D01*
X93756Y51589D01*
X93844Y51622D01*
X93920Y51632D01*
X93986D01*
X94106Y51622D01*
D02*
G37*
G36*
X63885D02*
X64005Y51600D01*
X64092Y51567D01*
X64180Y51523D01*
X64234Y51479D01*
X64289Y51447D01*
X64311Y51425D01*
X64322Y51414D01*
X64398Y51326D01*
X64453Y51217D01*
X64497Y51108D01*
X64530Y50999D01*
X64551Y50900D01*
X64573Y50813D01*
X64584Y50758D01*
Y50747D01*
Y50736D01*
X62945D01*
X62967Y50867D01*
X62988Y50988D01*
X63021Y51086D01*
X63054Y51173D01*
X63087Y51228D01*
X63109Y51283D01*
X63120Y51305D01*
X63130Y51315D01*
X63229Y51425D01*
X63327Y51501D01*
X63437Y51556D01*
X63535Y51589D01*
X63622Y51622D01*
X63699Y51632D01*
X63764D01*
X63885Y51622D01*
D02*
G37*
G36*
X67207Y44095D02*
X67306Y44062D01*
X67382Y44030D01*
X67459Y43986D01*
X67524Y43931D01*
X67568Y43898D01*
X67590Y43866D01*
X67601Y43855D01*
X67666Y43745D01*
X67721Y43625D01*
X67754Y43494D01*
X67787Y43374D01*
X67798Y43253D01*
X67809Y43166D01*
Y43101D01*
Y43090D01*
Y43079D01*
X67798Y42882D01*
X67776Y42718D01*
X67743Y42576D01*
X67710Y42467D01*
X67677Y42379D01*
X67645Y42314D01*
X67623Y42281D01*
X67612Y42270D01*
X67535Y42193D01*
X67448Y42139D01*
X67371Y42095D01*
X67295Y42073D01*
X67229Y42051D01*
X67175Y42040D01*
X67120D01*
X67000Y42051D01*
X66901Y42073D01*
X66803Y42117D01*
X66726Y42160D01*
X66661Y42204D01*
X66617Y42248D01*
X66584Y42270D01*
X66573Y42281D01*
X66497Y42390D01*
X66442Y42510D01*
X66409Y42630D01*
X66388Y42762D01*
X66366Y42871D01*
X66355Y42958D01*
Y43024D01*
Y43035D01*
Y43046D01*
X66366Y43243D01*
X66388Y43407D01*
X66420Y43549D01*
X66464Y43658D01*
X66497Y43745D01*
X66530Y43811D01*
X66552Y43844D01*
X66562Y43855D01*
X66650Y43942D01*
X66737Y43997D01*
X66825Y44041D01*
X66912Y44073D01*
X66989Y44095D01*
X67043Y44106D01*
X67098D01*
X67207Y44095D01*
D02*
G37*
G36*
X85701Y44336D02*
X85821Y44314D01*
X85909Y44281D01*
X85996Y44237D01*
X86051Y44194D01*
X86105Y44161D01*
X86127Y44139D01*
X86138Y44128D01*
X86215Y44041D01*
X86269Y43931D01*
X86313Y43822D01*
X86346Y43713D01*
X86368Y43614D01*
X86389Y43527D01*
X86400Y43472D01*
Y43461D01*
Y43450D01*
X84761D01*
X84783Y43581D01*
X84805Y43702D01*
X84837Y43800D01*
X84870Y43887D01*
X84903Y43942D01*
X84925Y43997D01*
X84936Y44019D01*
X84947Y44030D01*
X85045Y44139D01*
X85144Y44215D01*
X85253Y44270D01*
X85351Y44303D01*
X85439Y44336D01*
X85515Y44346D01*
X85581D01*
X85701Y44336D01*
D02*
G37*
G36*
X71454Y27621D02*
X71563Y27589D01*
X71661Y27545D01*
X71749Y27501D01*
X71814Y27446D01*
X71858Y27403D01*
X71891Y27370D01*
X71902Y27359D01*
X71978Y27250D01*
X72044Y27130D01*
X72088Y26998D01*
X72110Y26878D01*
X72131Y26769D01*
X72142Y26681D01*
Y26616D01*
Y26605D01*
Y26594D01*
X72131Y26419D01*
X72110Y26266D01*
X72066Y26146D01*
X72033Y26037D01*
X71989Y25960D01*
X71946Y25894D01*
X71924Y25862D01*
X71913Y25851D01*
X71825Y25774D01*
X71738Y25709D01*
X71640Y25665D01*
X71563Y25643D01*
X71487Y25621D01*
X71421Y25610D01*
X71366D01*
X71235Y25621D01*
X71115Y25654D01*
X71017Y25698D01*
X70929Y25752D01*
X70853Y25796D01*
X70798Y25840D01*
X70765Y25873D01*
X70754Y25884D01*
X70678Y25993D01*
X70612Y26113D01*
X70568Y26244D01*
X70547Y26364D01*
X70525Y26474D01*
X70514Y26561D01*
Y26616D01*
Y26638D01*
X70525Y26813D01*
X70547Y26955D01*
X70590Y27086D01*
X70634Y27184D01*
X70667Y27261D01*
X70710Y27326D01*
X70732Y27359D01*
X70743Y27370D01*
X70842Y27457D01*
X70940Y27523D01*
X71038Y27567D01*
X71126Y27600D01*
X71213Y27621D01*
X71279Y27632D01*
X71333D01*
X71454Y27621D01*
D02*
G37*
G36*
X76766Y27851D02*
X76875Y27818D01*
X76962Y27785D01*
X77039Y27742D01*
X77105Y27687D01*
X77148Y27654D01*
X77181Y27621D01*
X77192Y27610D01*
X77268Y27501D01*
X77323Y27381D01*
X77356Y27261D01*
X77389Y27130D01*
X77400Y27020D01*
X77411Y26933D01*
Y26867D01*
Y26856D01*
Y26845D01*
X77400Y26649D01*
X77378Y26474D01*
X77345Y26332D01*
X77301Y26222D01*
X77258Y26135D01*
X77225Y26069D01*
X77203Y26037D01*
X77192Y26026D01*
X77115Y25949D01*
X77028Y25884D01*
X76930Y25840D01*
X76853Y25818D01*
X76777Y25796D01*
X76722Y25785D01*
X76667D01*
X76558Y25796D01*
X76460Y25818D01*
X76372Y25862D01*
X76307Y25905D01*
X76241Y25949D01*
X76197Y25993D01*
X76175Y26015D01*
X76165Y26026D01*
X76099Y26135D01*
X76055Y26255D01*
X76012Y26386D01*
X75990Y26507D01*
X75979Y26627D01*
X75968Y26714D01*
Y26780D01*
Y26791D01*
Y26802D01*
X75979Y26998D01*
X76000Y27173D01*
X76022Y27305D01*
X76066Y27425D01*
X76099Y27501D01*
X76121Y27567D01*
X76143Y27600D01*
X76154Y27610D01*
X76230Y27698D01*
X76318Y27753D01*
X76394Y27796D01*
X76471Y27829D01*
X76547Y27851D01*
X76602Y27862D01*
X76645D01*
X76766Y27851D01*
D02*
G37*
G36*
X83039Y29436D02*
X83171Y29425D01*
X83269Y29403D01*
X83346Y29370D01*
X83411Y29337D01*
X83455Y29316D01*
X83477Y29305D01*
X83488Y29294D01*
X83542Y29239D01*
X83586Y29173D01*
X83619Y29108D01*
X83641Y29042D01*
X83652Y28977D01*
X83662Y28933D01*
Y28900D01*
Y28889D01*
X83652Y28791D01*
X83641Y28703D01*
X83608Y28627D01*
X83575Y28561D01*
X83542Y28518D01*
X83520Y28485D01*
X83499Y28463D01*
X83488Y28452D01*
X83411Y28408D01*
X83324Y28376D01*
X83127Y28332D01*
X83029Y28321D01*
X82952Y28310D01*
X82078D01*
Y29447D01*
X82897D01*
X83039Y29436D01*
D02*
G37*
G36*
X83182Y27162D02*
X83324Y27151D01*
X83444Y27119D01*
X83531Y27097D01*
X83608Y27064D01*
X83662Y27031D01*
X83684Y27020D01*
X83695Y27009D01*
X83761Y26944D01*
X83805Y26878D01*
X83848Y26802D01*
X83870Y26736D01*
X83881Y26671D01*
X83892Y26627D01*
Y26594D01*
Y26583D01*
X83881Y26485D01*
X83859Y26397D01*
X83826Y26310D01*
X83794Y26244D01*
X83761Y26190D01*
X83728Y26157D01*
X83706Y26135D01*
X83695Y26124D01*
X83608Y26069D01*
X83509Y26026D01*
X83400Y26004D01*
X83280Y25982D01*
X83182Y25971D01*
X83094Y25960D01*
X82078D01*
Y27173D01*
X83007D01*
X83182Y27162D01*
D02*
G37*
M02*
