M48
;Layer_Color=9474304
;FILE_FORMAT=2:4
INCH,TZ
;TYPE=PLATED
T01F00S00C0.0118
%
T01
X2835Y492
X2844Y906
X2835Y1280
X3346Y1378
Y984
Y591
X4528
Y984
Y1378
Y1772
Y2165
Y2559
Y2953
Y3346
Y3740
Y4134
Y4528
Y4921
Y5315
X3346
Y4921
Y4528
X2953
X2559
X2165
X1772
X1378
X984
X591
X492Y5039
X906Y5030
X1280Y5039
X1378Y3346
X1772
X2165
X2559
X2953
X3346
Y2953
Y2559
Y2165
Y1772
X5020Y1280
X5030Y906
X5020Y492
X1280Y2854
X906Y2844
X492Y2854
X591Y3346
X984
X10689Y3150
Y3543
Y3937
Y4331
Y4724
X10689Y5118
X11870Y5315
X11917Y4921
X12257Y4724
X12598Y4528
X12992
X13386
X13780
X14173
X14567
X14961
X15354
X15285Y5020
X14872Y5030
X14498Y5020
X14567Y3346
X14173
X13780
X13386
X12992
X12598
X12257Y3150
X11917Y2953
X11870Y2559
Y2165
Y1772
Y1378
Y984
Y591
X12362Y492
X12372Y906
X12362Y1280
X10689Y1181
X10689Y1575
X10689Y1969
Y2362
X10689Y2756
Y787
X10689Y394
X10177Y492
X10187Y906
X10177Y1280
X11693Y3937
X14961Y3346
X15354
X15285Y2835
X14872Y2844
X14498Y2835
X11870Y5709
Y6102
Y6496
Y6890
Y7283
X12382Y7421
X12372Y7008
X12382Y6634
X10689Y6693
Y6299
Y5906
Y5512
X10689Y7087
X10689Y7480
X10197Y7421
X10187Y7008
X10197Y6634
X5020Y6555
X5030Y6969
X5020Y7343
X4528Y7283
Y6890
Y6496
Y6102
Y5709
X3346
Y6102
Y6496
Y6890
Y7283
X2835Y7343
X2844Y6969
X2835Y6555
M30
